<svg xmlns="http://www.w3.org/2000/svg" viewBox="0 0 64 64" id="weather">
  <g>
    <path d="M60.5 43H3.5a1 1 0 0 0 0 2h57a1 1 0 0 0 0-2zM51.5 47h-39a1 1 0 0 0 0 2h39a1 1 0 0 0 0-2zM44.5 51h-25a1 1 0 0 0 0 2h25a1 1 0 0 0 0-2zM11.72 40h2.11a19.14 19.14 0 1 1 36.33 0h2.11a1 1 0 0 1 0-.27 21.09 21.09 0 1 0-40.6 0A1 1 0 0 1 11.72 40z"></path>
    <path d="M48.13,40a1,1,0,0,1,0-.33,17.14,17.14,0,1,0-32.35,0,1,1,0,0,1,0,.33h2.18a15.2,15.2,0,1,1,27.89,0Z"></path>
    <path d="M43.88,40a1,1,0,0,1,.09-.42,13.2,13.2,0,1,0-23.93,0,1,1,0,0,1,.09.42H22.5a11.11,11.11,0,0,1-1.75-6,11.25,11.25,0,0,1,22.5,0,11.11,11.11,0,0,1-1.75,6Z"></path>
    <path d="M32,24.79A9.26,9.26,0,0,0,22.75,34a9.14,9.14,0,0,0,1.76,5.41,1,1,0,0,1,.17.59H39.32a1,1,0,0,1,.17-.59A9.14,9.14,0,0,0,41.25,34,9.26,9.26,0,0,0,32,24.79Z"></path>
  </g>
</svg>
